<?xml version="1.0" encoding="utf-8"?>
<!-- Generator: Adobe Illustrator 23.0.5, SVG Export Plug-In . SVG Version: 6.00 Build 0)  -->
<svg version="1.1" id="Слой_1" xmlns="http://www.w3.org/2000/svg" xmlns:xlink="http://www.w3.org/1999/xlink" x="0px" y="0px"
	 viewBox="0 0 108.53 295.9" style="enable-background:new 0 0 108.53 295.9;" xml:space="preserve">
<g>
	<path d="M6.21,2.28C0.11,6.4-1.5,14.69,2.62,20.79C46.81,86.3,46.75,170.92,2.45,236.37c-0.03,0.04-0.05,0.07-0.07,0.11l-0.06,0.08
		c-4.15,6.08-2.59,14.38,3.5,18.53c5.38,3.67,12.49,2.87,16.94-1.57c0.58-0.58,1.11-1.22,1.59-1.92c0.07-0.11,0.15-0.22,0.22-0.32
		c24.97-36.92,37.99-79.91,37.63-124.32C61.86,83.58,48.9,41.71,24.73,5.88C20.61-0.23,12.32-1.84,6.21,2.28z"/>
	<path d="M106.53,291.9c-0.93,0-1.71,0.64-1.93,1.5h-16l-59.22-59.22l-0.71,0.71l59.5,59.5l0,0.01h16.42c0.22,0.86,1,1.5,1.93,1.5
		c1.1,0,2-0.9,2-2C108.53,292.79,107.64,291.9,106.53,291.9z"/>
</g>
</svg>
