<?xml version="1.0" encoding="utf-8"?>
<!-- Generator: Adobe Illustrator 23.0.5, SVG Export Plug-In . SVG Version: 6.00 Build 0)  -->
<svg version="1.1" id="Слой_1" xmlns="http://www.w3.org/2000/svg" xmlns:xlink="http://www.w3.org/1999/xlink" x="0px" y="0px"
	 viewBox="0 0 103 303.1" style="enable-background:new 0 0 103 303.1;" xml:space="preserve">
<style type="text/css">
	.st0{fill:#FFFFFF;}
</style>
<g>
	<path class="st0" d="M97,300.9c0.7-0.5,1.4-1,2-1.6c4.4-4.4,5.2-11.5,1.6-16.9c-44.3-65.5-44.3-150.2,0.1-215.7l0-0.1
		c4.1-6.1,2.6-14.4-3.5-18.5c-6.1-4.1-14.4-2.6-18.5,3.5l-0.1,0.1c-25,37-38,80-37.7,124.5c0.4,43.4,13.4,85.3,37.6,121.1
		C82.6,303.4,90.9,305,97,300.9z"/>
	<path class="st0" d="M78.2,63.3l0.7-0.7L17.7,1.5l0,0l0,0H3.9C3.7,0.6,2.9,0,2,0C0.9,0,0,0.9,0,2s0.9,2,2,2c0.9,0,1.7-0.6,1.9-1.5
		h13.4L78.2,63.3z"/>
</g>
</svg>
