<svg xmlns="http://www.w3.org/2000/svg" width="642.942" height="838.858" viewBox="0 0 642.942 838.858">
  <g id="Group_231" data-name="Group 231" transform="translate(-1360.872 -258.976)">
    <g id="Group_98" data-name="Group 98" transform="translate(1360.872 258.976)" opacity="0.1">
      <path id="Path_21" data-name="Path 21" d="M2719.783-448.628a35.871,35.871,0,0,0-50.214-7.213l-571.2,427.708a35.875,35.875,0,0,0-7.215,50.216A35.821,35.821,0,0,0,2119.9,36.456a35.685,35.685,0,0,0,21.47-7.161l571.2-427.707A35.879,35.879,0,0,0,2719.783-448.628Z" transform="translate(-2083.998 603.728)" fill="#939391"/>
      <path id="Path_22" data-name="Path 22" d="M2203.008-322.95a119.439,119.439,0,0,1,119.3-119.305A119.441,119.441,0,0,1,2441.619-322.95v3.468l66.1-49.5C2487.068-452.159,2411.79-514,2322.313-514c-105.344,0-191.05,85.7-191.05,191.05V-87.09l71.745-53.72Z" transform="translate(-2000.842 514)" fill="#939391"/>
      <path id="Path_23" data-name="Path 23" d="M2424.493-251.947a119.442,119.442,0,0,1-119.308,119.306A119.055,119.055,0,0,1,2214.4-174.67l-57.479,43.038a191.261,191.261,0,0,0,111.015,67.076V27.4h-91.062a35.872,35.872,0,1,0,0,71.744h256.623a35.872,35.872,0,1,0,0-71.744h-93.816V-64.076c88.928-16.292,156.556-94.305,156.556-187.871V-385.712l-71.742,53.723Z" transform="translate(-1983.712 739.71)" fill="#939391"/>
    </g>
  </g>
</svg>
