<?xml version="1.0" encoding="utf-8"?>
<!-- Generator: Adobe Illustrator 23.0.5, SVG Export Plug-In . SVG Version: 6.00 Build 0)  -->
<svg version="1.1" id="Слой_1" xmlns="http://www.w3.org/2000/svg" xmlns:xlink="http://www.w3.org/1999/xlink" x="0px" y="0px"
	 viewBox="0 0 108.5 295.9" style="enable-background:new 0 0 108.5 295.9;" xml:space="preserve">
<style type="text/css">
	.st0{fill:#FFFFFF;}
</style>
<g>
	<path class="st0" d="M6.2,2.3C0.1,6.4-1.5,14.7,2.6,20.8c44.2,65.5,44.1,150.1-0.2,215.6c0,0,0,0.1-0.1,0.1l-0.1,0.1
		c-4.2,6.1-2.6,14.4,3.5,18.5c5.4,3.7,12.5,2.9,16.9-1.6c0.6-0.6,1.1-1.2,1.6-1.9c0.1-0.1,0.1-0.2,0.2-0.3
		c25-36.9,38-79.9,37.6-124.3C61.9,83.6,48.9,41.7,24.7,5.9C20.6-0.2,12.3-1.8,6.2,2.3z"/>
	<path class="st0" d="M106.5,291.9c-0.9,0-1.7,0.6-1.9,1.5h-16l-59.2-59.2l-0.7,0.7l59.5,59.5v0h16.4c0.2,0.9,1,1.5,1.9,1.5
		c1.1,0,2-0.9,2-2C108.5,292.8,107.6,291.9,106.5,291.9z"/>
</g>
</svg>
