<?xml version="1.0" encoding="utf-8"?>
<!-- Generator: Adobe Illustrator 23.0.5, SVG Export Plug-In . SVG Version: 6.00 Build 0)  -->
<svg version="1.1" id="Слой_1" xmlns="http://www.w3.org/2000/svg" xmlns:xlink="http://www.w3.org/1999/xlink" x="0px" y="0px"
	 viewBox="0 0 102.98 303.15" style="enable-background:new 0 0 102.98 303.15;" xml:space="preserve">
<g>
	<path d="M96.99,300.86c0.72-0.49,1.38-1.03,1.97-1.63c4.43-4.43,5.24-11.51,1.61-16.89c-44.3-65.53-44.27-150.21,0.07-215.73
		l0.04-0.06c4.14-6.09,2.55-14.39-3.54-18.52c-6.09-4.14-14.38-2.56-18.52,3.54l-0.07,0.1c-25.01,36.96-38.03,80-37.66,124.46
		c0.36,43.42,13.36,85.31,37.59,121.15C82.6,303.38,90.89,304.98,96.99,300.86z"/>
	<path d="M78.15,63.35l0.71-0.71L17.71,1.5l0,0l0,0H3.93C3.71,0.64,2.93,0,2,0C0.9,0,0,0.9,0,2c0,1.1,0.9,2,2,2
		c0.93,0,1.71-0.64,1.93-1.5h13.36L78.15,63.35z"/>
</g>
</svg>
