<?xml version="1.0" encoding="utf-8"?>
<!-- Generator: Adobe Illustrator 23.0.5, SVG Export Plug-In . SVG Version: 6.00 Build 0)  -->
<svg version="1.1" id="Слой_1" xmlns="http://www.w3.org/2000/svg" xmlns:xlink="http://www.w3.org/1999/xlink" x="0px" y="0px"
	 viewBox="0 0 388.1 62.2" style="enable-background:new 0 0 388.1 62.2;" xml:space="preserve">
<style type="text/css">
	.st0{fill:#FFFFFF;}
</style>
<g>
	<path class="st0" d="M367.3,2.5c-65.5,44.2-150.2,44.2-215.7-0.1c0,0-0.1,0-0.1,0l-0.1,0c-6.1-4.1-14.4-2.5-18.5,3.5
		s-2.6,14.4,3.5,18.5l0.2,0.1c36.9,25,80,38,124.4,37.7c43.4-0.3,85.3-13.3,121.1-37.5c0.7-0.5,1.4-1,2-1.6
		c4.4-4.4,5.2-11.5,1.6-16.9C381.7,0,373.4-1.6,367.3,2.5z"/>
	<path class="st0" d="M135.5,6.5H3.9C3.7,5.7,2.9,5,2,5C0.9,5,0,5.9,0,7s0.9,2,2,2c0.9,0,1.7-0.6,1.9-1.5h131.6V6.5z"/>
</g>
</svg>
