<?xml version="1.0" encoding="utf-8"?>
<!-- Generator: Adobe Illustrator 23.0.5, SVG Export Plug-In . SVG Version: 6.00 Build 0)  -->
<svg version="1.1" id="Слой_1" xmlns="http://www.w3.org/2000/svg" xmlns:xlink="http://www.w3.org/1999/xlink" x="0px" y="0px"
	 viewBox="0 0 388.12 62.16" style="enable-background:new 0 0 388.12 62.16;" xml:space="preserve">
<g>
	<path d="M367.32,2.51C301.8,46.76,217.15,46.71,151.66,2.4c-0.02-0.01-0.05-0.03-0.06-0.04l-0.07-0.05
		c-6.09-4.14-14.38-2.55-18.52,3.54c-4.14,6.09-2.55,14.39,3.54,18.52l0.18,0.12c36.94,25,79.97,38.02,124.41,37.66
		c43.4-0.35,85.28-13.33,121.12-37.53c0.72-0.49,1.38-1.04,1.98-1.63c4.42-4.43,5.24-11.5,1.61-16.88
		C381.71,0,373.42-1.61,367.32,2.51z"/>
	<path d="M135.5,6.53H3.93c-0.22-0.86-1-1.5-1.93-1.5c-1.1,0-2,0.9-2,2c0,1.1,0.9,2,2,2c0.93,0,1.71-0.64,1.93-1.5H135.5V6.53z"/>
</g>
</svg>
